<svg width="20" height="20" viewBox="0 0 20 20" fill="none" xmlns="http://www.w3.org/2000/svg">
<path d="M19 2.32353V17.6765C19 18.0275 18.8606 18.3641 18.6123 18.6123C18.3641 18.8606 18.0275 19 17.6765 19H2.32353C1.97251 19 1.63586 18.8606 1.38765 18.6123C1.13944 18.3641 1 18.0275 1 17.6765V2.32353C1 1.97251 1.13944 1.63586 1.38765 1.38765C1.63586 1.13944 1.97251 1 2.32353 1L17.6765 1C18.0275 1 18.3641 1.13944 18.6123 1.38765C18.8606 1.63586 19 1.97251 19 2.32353V2.32353ZM6.29412 7.88235H3.64706V16.3529H6.29412V7.88235ZM6.53235 4.97059C6.53375 4.77036 6.49569 4.57182 6.42035 4.3863C6.34502 4.20078 6.23387 4.03191 6.09328 3.88935C5.95268 3.74678 5.78537 3.6333 5.60091 3.5554C5.41646 3.47749 5.21846 3.43668 5.01824 3.43529H4.97059C4.5634 3.43529 4.1729 3.59705 3.88497 3.88497C3.59705 4.1729 3.43529 4.5634 3.43529 4.97059C3.43529 5.37777 3.59705 5.76828 3.88497 6.05621C4.1729 6.34413 4.5634 6.50588 4.97059 6.50588V6.50588C5.17083 6.51081 5.37008 6.47623 5.55696 6.40413C5.74383 6.33202 5.91467 6.2238 6.0597 6.08565C6.20474 5.94749 6.32113 5.78212 6.40223 5.59897C6.48333 5.41582 6.52755 5.21848 6.53235 5.01824V4.97059ZM16.3529 11.2071C16.3529 8.66059 14.7329 7.67059 13.1235 7.67059C12.5966 7.6442 12.0719 7.75644 11.6019 7.9961C11.1318 8.23577 10.7328 8.59448 10.4447 9.03647H10.3706V7.88235H7.88235V16.3529H10.5294V11.8476C10.4911 11.3862 10.6365 10.9283 10.9339 10.5735C11.2313 10.2186 11.6567 9.9954 12.1176 9.95235H12.2182C13.06 9.95235 13.6847 10.4818 13.6847 11.8159V16.3529H16.3318L16.3529 11.2071Z" fill="#0101AC"/>
</svg>
