<svg width="20" height="20" viewBox="0 0 20 20" fill="none" xmlns="http://www.w3.org/2000/svg">
<path fill-rule="evenodd" clip-rule="evenodd" d="M14.2964 15.2439C16.8023 14.9446 18.9843 13.4006 19.2585 11.9898C19.6906 9.76737 19.6549 6.56632 19.6549 6.56632C19.6549 2.22771 16.8124 0.955994 16.8124 0.955994C15.3791 0.297725 12.918 0.0209043 10.3611 0H10.2983C7.74141 0.0209043 5.28192 0.297725 3.84857 0.955994C3.84857 0.955994 1.00591 2.22771 1.00591 6.56632C1.00591 6.82934 1.00455 7.10599 1.00314 7.39399C0.999208 8.19382 0.994847 9.08121 1.01798 10.0074C1.12121 14.2504 1.79586 18.432 5.71875 19.4703C7.52751 19.9491 9.08047 20.0493 10.3312 19.9805C12.5993 19.8548 13.8725 19.1711 13.8725 19.1711L13.7977 17.5254C13.7977 17.5254 12.1769 18.0365 10.3566 17.9742C8.55312 17.9124 6.64921 17.7797 6.35752 15.5655C6.33058 15.371 6.31711 15.163 6.31711 14.9446C6.31711 14.9446 8.08751 15.3774 10.3312 15.4802C11.7031 15.5431 12.9897 15.3998 14.2964 15.2439ZM16.3019 12.1562V6.90289C16.3019 5.82923 16.0286 4.97603 15.4796 4.34481C14.9132 3.71359 14.1716 3.39 13.2512 3.39C12.186 3.39 11.3795 3.79936 10.8463 4.61818L10.3278 5.48722L9.80942 4.61818C9.27615 3.79936 8.46961 3.39 7.40457 3.39C6.48402 3.39 5.74246 3.71359 5.17621 4.34481C4.6271 4.97603 4.35373 5.82923 4.35373 6.90289V12.1562H6.435V7.0573C6.435 5.98245 6.88724 5.4369 7.79183 5.4369C8.79201 5.4369 9.29339 6.08407 9.29339 7.36375V10.1547H11.3624V7.36375C11.3624 6.08407 11.8636 5.4369 12.8638 5.4369C13.7684 5.4369 14.2207 5.98245 14.2207 7.0573V12.1562H16.3019Z" fill="#0101AC"/>
</svg>
